name analog
datacolumns 19
datarows 35
range 0.4805 0.4975
endheader
time	ground_force_vx	ground_force_vy	ground_force_vz	ground_force_px	ground_force_py	ground_force_pz	l_ground_force_vx	l_ground_force_vy	l_ground_force_vz	l_ground_force_px	l_ground_force_py	l_ground_force_pz	ground_torque_x	ground_torque_y	ground_torque_z	l_ground_torque_x	l_ground_torque_y	l_ground_torque_z
0.4805	-0.0	-0.0	-0.0	-0.0	-0.0	-0.0	7.797706127166748	2.0933079719543457	-782.9371948242188	-0.0	-0.0	-0.0	-0.0	-0.0	-0.0	220634.59375	-40166.265625	901.91259765625
0.481	-0.0	-0.0	-0.0	-0.0	-0.0	-0.0	7.194341659545898	2.746701717376709	-789.9575805664062	-0.0	-0.0	-0.0	-0.0	-0.0	-0.0	222147.734375	-40157.26953125	622.8953247070312
0.4815	-0.0	-0.0	-0.0	-0.0	-0.0	-0.0	7.4342522621154785	3.1347012519836426	-792.9577026367188	-0.0	-0.0	-0.0	-0.0	-0.0	-0.0	223838.109375	-40253.0234375	439.3714904785156
0.482	-0.0	-0.0	-0.0	-0.0	-0.0	-0.0	7.2569475173950195	4.752110004425049	-797.879638671875	-0.0	-0.0	-0.0	-0.0	-0.0	-0.0	225613.265625	-40628.80078125	249.4777984619141
0.4825	-0.0	-0.0	-0.0	-0.0	-0.0	-0.0	7.789361953735352	6.3392863273620605	-805.10986328125	-0.0	-0.0	-0.0	-0.0	-0.0	-0.0	227717.15625	-41126.80859375	152.59658813476562
0.483	-0.0	-0.0	-0.0	-0.0	-0.0	-0.0	8.118631362915039	8.567203521728516	-811.0792236328125	-0.0	-0.0	-0.0	-0.0	-0.0	-0.0	229550.890625	-41456.140625	149.48422241210938
0.4835	-0.0	-0.0	-0.0	-0.0	-0.0	-0.0	8.436001777648926	10.270635604858398	-817.7465209960938	-0.0	-0.0	-0.0	-0.0	-0.0	-0.0	232164.421875	-41639.2578125	269.9154357910156
0.484	-0.0	-0.0	-0.0	-0.0	-0.0	-0.0	8.575170516967773	11.515348434448242	-822.9171752929688	-0.0	-0.0	-0.0	-0.0	-0.0	-0.0	233746.546875	-42364.25390625	222.30252075195312
0.4845	-0.0	-0.0	-0.0	-0.0	-0.0	-0.0	8.338813781738281	11.650121688842772	-829.867431640625	-0.0	-0.0	-0.0	-0.0	-0.0	-0.0	235340.78125	-43015.44921875	6.088314056396484
0.485	-0.0	-0.0	-0.0	-0.0	-0.0	-0.0	7.925852298736572	11.12026596069336	-834.1558837890625	-0.0	-0.0	-0.0	-0.0	-0.0	-0.0	236891.140625	-43491.6875	-191.73329162597656
0.4855	-0.0	-0.0	-0.0	-0.0	-0.0	-0.0	6.781162738800049	10.662248611450195	-840.2778930664062	-0.0	-0.0	-0.0	-0.0	-0.0	-0.0	238833.515625	-44278.63671875	-520.896728515625
0.486	-0.0	-0.0	-0.0	-0.0	-0.0	-0.0	5.41956090927124	9.756220817565918	-843.8671264648438	-0.0	-0.0	-0.0	-0.0	-0.0	-0.0	239913.1875	-44754.73046875	-759.446533203125
0.4865	-0.0	-0.0	-0.0	-0.0	-0.0	-0.0	4.967803955078125	9.707293510437012	-849.168701171875	-0.0	-0.0	-0.0	-0.0	-0.0	-0.0	241444.0	-45582.015625	-846.1046142578125
0.487	-0.0	-0.0	-0.0	-0.0	-0.0	-0.0	5.121015548706055	10.084741592407228	-851.6760864257812	-0.0	-0.0	-0.0	-0.0	-0.0	-0.0	242589.09375	-46043.57421875	-829.78662109375
0.4875	-0.0	-0.0	-0.0	-0.0	-0.0	-0.0	5.645510196685791	10.574722290039062	-854.1193237304688	-0.0	-0.0	-0.0	-0.0	-0.0	-0.0	243079.4375	-46421.109375	-742.9202880859375
0.488	-0.0	-0.0	-0.0	-0.0	-0.0	-0.0	5.515976428985596	10.823972702026367	-857.7715454101562	-0.0	-0.0	-0.0	-0.0	-0.0	-0.0	244065.078125	-46665.21875	-764.5927734375
0.4885	-0.0	-0.0	-0.0	-0.0	-0.0	-0.0	5.612518310546875	10.759489059448242	-859.0752563476562	-0.0	-0.0	-0.0	-0.0	-0.0	-0.0	244652.03125	-47114.49609375	-912.8607177734376
0.489	-0.0	-0.0	-0.0	-0.0	-0.0	-0.0	5.226098537445068	10.70253086090088	-859.2620849609375	-0.0	-0.0	-0.0	-0.0	-0.0	-0.0	244739.0625	-47320.6171875	-872.1683349609375
0.4895	-0.0	-0.0	-0.0	-0.0	-0.0	-0.0	4.879093170166016	10.871313095092772	-858.6863403320312	-0.0	-0.0	-0.0	-0.0	-0.0	-0.0	244890.3125	-47291.91015625	-826.9634399414062
0.49	-0.0	-0.0	-0.0	-0.0	-0.0	-0.0	4.910049915313721	10.614012718200684	-859.96044921875	-0.0	-0.0	-0.0	-0.0	-0.0	-0.0	245249.625	-47395.953125	-918.5730590820312
0.4905	-0.0	-0.0	-0.0	-0.0	-0.0	-0.0	5.013789176940918	10.326006889343262	-858.943115234375	-0.0	-0.0	-0.0	-0.0	-0.0	-0.0	245023.84375	-47709.2578125	-1034.6156005859375
0.491	-0.0	-0.0	-0.0	-0.0	-0.0	-0.0	4.709277629852295	9.5614595413208	-859.760986328125	-0.0	-0.0	-0.0	-0.0	-0.0	-0.0	244759.3125	-47692.8046875	-1005.3428344726562
0.4915	-0.0	-0.0	-0.0	-0.0	-0.0	-0.0	4.567774772644043	8.721352577209473	-857.9544067382812	-0.0	-0.0	-0.0	-0.0	-0.0	-0.0	244342.1875	-47323.46875	-1106.6600341796875
0.492	-0.0	-0.0	-0.0	-0.0	-0.0	-0.0	2.801295280456543	7.573293685913086	-857.1082763671875	-0.0	-0.0	-0.0	-0.0	-0.0	-0.0	244443.109375	-47376.97265625	-1365.6390380859375
0.4925	-0.0	-0.0	-0.0	-0.0	-0.0	-0.0	0.0148978950455784	6.071947574615479	-855.8292846679688	-0.0	-0.0	-0.0	-0.0	-0.0	-0.0	243991.59375	-46780.0703125	-1963.746337890625
0.493	-0.0	-0.0	-0.0	-0.0	-0.0	-0.0	-2.772156238555908	4.497064113616943	-854.02490234375	-0.0	-0.0	-0.0	-0.0	-0.0	-0.0	243593.34375	-46508.14453125	-2569.197509765625
0.4935	-0.0	-0.0	-0.0	-0.0	-0.0	-0.0	-5.056514739990234	3.981760025024414	-853.2977294921875	-0.0	-0.0	-0.0	-0.0	-0.0	-0.0	243142.640625	-45951.15625	-3327.40380859375
0.494	-0.0	-0.0	-0.0	-0.0	-0.0	-0.0	-7.267009735107422	4.37986946105957	-854.2881469726562	-0.0	-0.0	-0.0	-0.0	-0.0	-0.0	243060.671875	-45598.2734375	-3739.292236328125
0.4945	-0.0	-0.0	-0.0	-0.0	-0.0	-0.0	-8.161392211914062	5.416296005249023	-852.307373046875	-0.0	-0.0	-0.0	-0.0	-0.0	-0.0	243590.578125	-45483.359375	-3964.19140625
0.495	-0.0	-0.0	-0.0	-0.0	-0.0	-0.0	-8.842443466186523	7.020177841186523	-854.6949462890625	-0.0	-0.0	-0.0	-0.0	-0.0	-0.0	244681.203125	-45588.01953125	-4159.86474609375
0.4955	-0.0	-0.0	-0.0	-0.0	-0.0	-0.0	-7.820716857910156	9.559900283813477	-858.2426147460938	-0.0	-0.0	-0.0	-0.0	-0.0	-0.0	245295.84375	-45781.890625	-4062.369873046875
0.496	-0.0	-0.0	-0.0	-0.0	-0.0	-0.0	-7.089837074279785	12.114060401916504	-860.3925170898438	-0.0	-0.0	-0.0	-0.0	-0.0	-0.0	246547.484375	-45973.46484375	-3915.269287109375
0.4965	-0.0	-0.0	-0.0	-0.0	-0.0	-0.0	-6.128028869628906	14.770584106445312	-865.4644165039062	-0.0	-0.0	-0.0	-0.0	-0.0	-0.0	248155.296875	-46370.5234375	-3646.947509765625
0.497	-0.0	-0.0	-0.0	-0.0	-0.0	-0.0	-4.647509574890137	16.37390899658203	-867.4285888671875	-0.0	-0.0	-0.0	-0.0	-0.0	-0.0	249332.640625	-46565.37890625	-3335.0087890625
0.4975	-0.0	-0.0	-0.0	-0.0	-0.0	-0.0	-3.712149620056152	17.956588745117188	-869.9779663085938	-0.0	-0.0	-0.0	-0.0	-0.0	-0.0	249846.109375	-46803.953125	-2889.23779296875
